HIERARCHY
ROOT Joint0
{
  OFFSET 0.0000 0.0000 1.0000
  CHANNELS 6 Xposition Yposition Zposition Zrotation Xrotation Yrotation
  JOINT Joint1
  {
    OFFSET 0.0811 -0.0899 -0.0114
    CHANNELS 3 Zrotation Xrotation Yrotation
    JOINT Joint4
    {
      OFFSET 0.0297 -0.3677 -0.0039
      CHANNELS 3 Zrotation Xrotation Yrotation
      JOINT Joint7
      {
        OFFSET -0.0120 -0.3841 -0.0490
        CHANNELS 3 Zrotation Xrotation Yrotation
        JOINT Joint10
        {
          OFFSET 0.0247 -0.0555 0.1226
          CHANNELS 3 Zrotation Xrotation Yrotation
          End Site
          {
            OFFSET 0.0247 -0.0555 0.1226
          }
        }
      }
    }
  }
  JOINT Joint2
  {
    OFFSET -0.0773 -0.0878 -0.0084
    CHANNELS 3 Zrotation Xrotation Yrotation
    JOINT Joint5
    {
      OFFSET -0.0344 -0.3716 -0.0062
      CHANNELS 3 Zrotation Xrotation Yrotation
      JOINT Joint8
      {
        OFFSET 0.0139 -0.3835 -0.0484
        CHANNELS 3 Zrotation Xrotation Yrotation
        JOINT Joint11
        {
          OFFSET -0.0293 -0.0469 0.1263
          CHANNELS 3 Zrotation Xrotation Yrotation
          End Site
          {
            OFFSET -0.0293 -0.0469 0.1263
          }
        }
      }
    }
  }
  JOINT Joint3
  {
    OFFSET -0.0027 0.1037 -0.0232
    CHANNELS 3 Zrotation Xrotation Yrotation
    JOINT Joint6
    {
      OFFSET 0.0030 0.1296 -0.0027
      CHANNELS 3 Zrotation Xrotation Yrotation
      JOINT Joint9
      {
        OFFSET 0.0015 0.0533 0.0332
        CHANNELS 3 Zrotation Xrotation Yrotation
        JOINT Joint12
        {
          OFFSET -0.0004 0.2283 -0.0600
          CHANNELS 3 Zrotation Xrotation Yrotation
          JOINT Joint15
          {
            OFFSET 0.0048 0.0641 0.0558
            CHANNELS 3 Zrotation Xrotation Yrotation
            End Site
            {
              OFFSET 0.0048 0.0641 0.0558
            }
          }
        }
        JOINT Joint13
        {
          OFFSET 0.0787 0.1275 -0.0430
          CHANNELS 3 Zrotation Xrotation Yrotation
          JOINT Joint16
          {
            OFFSET 0.0914 0.0355 -0.0086
            CHANNELS 3 Zrotation Xrotation Yrotation
            JOINT Joint18
            {
              OFFSET 0.2512 -0.0141 -0.0294
              CHANNELS 3 Zrotation Xrotation Yrotation
              JOINT Joint20
              {
                OFFSET 0.2431 0.0092 0.0027
                CHANNELS 3 Zrotation Xrotation Yrotation
                JOINT Joint22
                {
                  OFFSET 0.1053 -0.0108 0.0234
                  CHANNELS 3 Zrotation Xrotation Yrotation
                  JOINT Joint23
                  {
                    OFFSET 0.0332 0.0042 0.0030
                    CHANNELS 3 Zrotation Xrotation Yrotation
                    JOINT Joint24
                    {
                      OFFSET 0.0234 -0.0009 0.0005
                      CHANNELS 3 Zrotation Xrotation Yrotation
                      End Site
                      {
                        OFFSET 0.0234 -0.0009 0.0005
                      }
                    }
                  }
                }
                JOINT Joint25
                {
                  OFFSET 0.1126 -0.0078 -0.0002
                  CHANNELS 3 Zrotation Xrotation Yrotation
                  JOINT Joint26
                  {
                    OFFSET 0.0317 0.0021 -0.0047
                    CHANNELS 3 Zrotation Xrotation Yrotation
                    JOINT Joint27
                    {
                      OFFSET 0.0246 -0.0008 -0.0039
                      CHANNELS 3 Zrotation Xrotation Yrotation
                      End Site
                      {
                        OFFSET 0.0246 -0.0008 -0.0039
                      }
                    }
                  }
                }
                JOINT Joint28
                {
                  OFFSET 0.0860 -0.0168 -0.0403
                  CHANNELS 3 Zrotation Xrotation Yrotation
                  JOINT Joint29
                  {
                    OFFSET 0.0158 -0.0006 -0.0114
                    CHANNELS 3 Zrotation Xrotation Yrotation
                    JOINT Joint30
                    {
                      OFFSET 0.0161 -0.0011 -0.0109
                      CHANNELS 3 Zrotation Xrotation Yrotation
                      End Site
                      {
                        OFFSET 0.0161 -0.0011 -0.0109
                      }
                    }
                  }
                }
                JOINT Joint31
                {
                  OFFSET 0.0999 -0.0111 -0.0238
                  CHANNELS 3 Zrotation Xrotation Yrotation
                  JOINT Joint32
                  {
                    OFFSET 0.0286 0.0023 -0.0053
                    CHANNELS 3 Zrotation Xrotation Yrotation
                    JOINT Joint33
                    {
                      OFFSET 0.0234 -0.0009 -0.0074
                      CHANNELS 3 Zrotation Xrotation Yrotation
                      End Site
                      {
                        OFFSET 0.0234 -0.0009 -0.0074
                      }
                    }
                  }
                }
                JOINT Joint34
                {
                  OFFSET 0.0426 -0.0219 0.0277
                  CHANNELS 3 Zrotation Xrotation Yrotation
                  JOINT Joint35
                  {
                    OFFSET 0.0185 0.0008 0.0246
                    CHANNELS 3 Zrotation Xrotation Yrotation
                    JOINT Joint36
                    {
                      OFFSET 0.0221 -0.0048 0.0152
                      CHANNELS 3 Zrotation Xrotation Yrotation
                      End Site
                      {
                        OFFSET 0.0221 -0.0048 0.0152
                      }
                    }
                  }
                }
              }
            }
          }
        }
        JOINT Joint14
        {
          OFFSET -0.0815 0.1251 -0.0492
          CHANNELS 3 Zrotation Xrotation Yrotation
          JOINT Joint17
          {
            OFFSET -0.0975 0.0385 -0.0099
            CHANNELS 3 Zrotation Xrotation Yrotation
            JOINT Joint19
            {
              OFFSET -0.2546 -0.0159 -0.0229
              CHANNELS 3 Zrotation Xrotation Yrotation
              JOINT Joint21
              {
                OFFSET -0.2519 0.0079 0.0007
                CHANNELS 3 Zrotation Xrotation Yrotation
                JOINT Joint37
                {
                  OFFSET -0.1043 -0.0103 0.0246
                  CHANNELS 3 Zrotation Xrotation Yrotation
                  JOINT Joint38
                  {
                    OFFSET -0.0341 0.0034 0.0025
                    CHANNELS 3 Zrotation Xrotation Yrotation
                    JOINT Joint39
                    {
                      OFFSET -0.0236 -0.0015 -0.0003
                      CHANNELS 3 Zrotation Xrotation Yrotation
                      End Site
                      {
                        OFFSET -0.0236 -0.0015 -0.0003
                      }
                    }
                  }
                }
                JOINT Joint40
                {
                  OFFSET -0.1123 -0.0074 -0.0003
                  CHANNELS 3 Zrotation Xrotation Yrotation
                  JOINT Joint41
                  {
                    OFFSET -0.0322 0.0016 -0.0048
                    CHANNELS 3 Zrotation Xrotation Yrotation
                    JOINT Joint42
                    {
                      OFFSET -0.0245 -0.0012 -0.0045
                      CHANNELS 3 Zrotation Xrotation Yrotation
                      End Site
                      {
                        OFFSET -0.0245 -0.0012 -0.0045
                      }
                    }
                  }
                }
                JOINT Joint43
                {
                  OFFSET -0.0863 -0.0161 -0.0419
                  CHANNELS 3 Zrotation Xrotation Yrotation
                  JOINT Joint44
                  {
                    OFFSET -0.0162 -0.0001 -0.0120
                    CHANNELS 3 Zrotation Xrotation Yrotation
                    JOINT Joint45
                    {
                      OFFSET -0.0165 -0.0007 -0.0110
                      CHANNELS 3 Zrotation Xrotation Yrotation
                      End Site
                      {
                        OFFSET -0.0165 -0.0007 -0.0110
                      }
                    }
                  }
                }
                JOINT Joint46
                {
                  OFFSET -0.0999 -0.0107 -0.0248
                  CHANNELS 3 Zrotation Xrotation Yrotation
                  JOINT Joint47
                  {
                    OFFSET -0.0290 0.0016 -0.0050
                    CHANNELS 3 Zrotation Xrotation Yrotation
                    JOINT Joint48
                    {
                      OFFSET -0.0236 -0.0012 -0.0076
                      CHANNELS 3 Zrotation Xrotation Yrotation
                      End Site
                      {
                        OFFSET -0.0236 -0.0012 -0.0076
                      }
                    }
                  }
                }
                JOINT Joint49
                {
                  OFFSET -0.0397 -0.0214 0.0306
                  CHANNELS 3 Zrotation Xrotation Yrotation
                  JOINT Joint50
                  {
                    OFFSET -0.0191 0.0007 0.0247
                    CHANNELS 3 Zrotation Xrotation Yrotation
                    JOINT Joint51
                    {
                      OFFSET -0.0231 -0.0056 0.0141
                      CHANNELS 3 Zrotation Xrotation Yrotation
                      End Site
                      {
                        OFFSET -0.0231 -0.0056 0.0141
                      }
                    }
                  }
                }
              }
            }
          }
        }
      }
    }
  }
}
MOTION
Frames: 8
Frame Time: 0.0333
0.0000 0.0000 0.0000 71.9601 85.9696 15.2385 0.7953 2.9552 3.1643 -3.1791 6.3139 -7.7353 4.2841 -10.0016 5.8956 0.0000 0.0000 0.0000 -1.4162 -3.3676 -1.0536 -0.0265 16.8996 1.5593 1.1168 -10.2835 -7.3037 0.0000 0.0000 0.0000 1.6307 12.2642 0.3903 -1.8821 -5.6398 2.9188 -1.9565 -1.5013 0.4324 9.0311 -9.4346 -6.5093 -2.9760 12.5289 -8.7515 -21.1887 0.5754 7.3432 -57.5057 10.0519 2.8631 17.3535 15.4148 -36.8349 4.2872 -20.8954 -3.9866 -24.0738 5.7061 3.7140 -43.3124 7.0195 -1.1858 -11.0629 -4.9918 -5.7123 -30.3189 -7.2093 1.0370 -40.4542 -8.6380 0.1210 -19.3843 -0.1920 -5.3744 -40.1428 -20.5934 -19.4386 -29.8046 -10.8081 -6.7641 -5.4446 -21.0010 -4.5092 -36.8726 -6.0602 -7.1223 -37.6129 -15.1557 -8.6470 -22.1659 -8.4174 -9.3293 -16.0939 46.7949 23.9080 3.7329 -28.5753 2.5054 -18.3193 29.8224 7.6334 10.1349 -8.4875 15.4904 37.4718 1.9765 51.8365 -11.9889 -34.0895 45.7865 -19.6634 -30.4794 -3.6361 24.0738 5.7061 -3.7140 43.3124 7.0195 1.1858 11.0629 -4.9918 5.7123 30.3189 -7.2093 -1.0370 40.4542 -8.6380 -0.1210 19.3843 -0.1920 5.3744 40.1428 -20.5934 19.4386 29.8046 -10.8081 6.7641 5.4446 -21.0010 4.5092 36.8726 -6.0602 7.1223 37.6129 -15.1557 8.6470 22.1659 -8.4174 9.3293 16.0939 46.7949 -23.9080 -3.7329 -28.5753 -2.5054 18.3193 29.8224 -7.6334
0.0000 0.0000 0.0000 71.2525 85.7565 16.2354 0.8590 2.9790 3.1928 -3.1417 6.4453 -7.6751 4.0917 -10.1016 5.7677 0.0000 0.0000 0.0000 -1.2329 -3.2012 -0.8178 -0.0932 16.9534 1.1438 0.8336 -10.4107 -7.3901 0.0000 0.0000 0.0000 1.8720 13.0614 0.2236 -2.2784 -5.8552 3.3484 -1.8694 -1.9816 0.8389 9.2098 -10.0143 -7.2997 -2.6752 12.6357 -8.9334 -20.7968 1.0099 6.6577 -57.6703 10.0033 2.7937 17.4852 14.9148 -37.1260 3.9206 -20.9850 -4.5298 -24.0738 5.7061 3.7140 -43.3124 7.0195 -1.1858 -11.0629 -4.9918 -5.7123 -30.3189 -7.2093 1.0370 -40.4542 -8.6380 0.1210 -19.3843 -0.1920 -5.3744 -40.1428 -20.5934 -19.4386 -29.8046 -10.8081 -6.7641 -5.4446 -21.0010 -4.5092 -36.8726 -6.0602 -7.1223 -37.6129 -15.1557 -8.6470 -22.1659 -8.4174 -9.3293 -16.0939 46.7949 23.9080 3.7329 -28.5753 2.5054 -18.3193 29.8224 7.6334 9.5183 -8.0267 18.4779 37.6436 3.1945 53.7860 -10.3926 -31.2101 46.3019 -17.0431 -32.5048 1.2866 24.0738 5.7061 -3.7140 43.3124 7.0195 1.1858 11.0629 -4.9918 5.7123 30.3189 -7.2093 -1.0370 40.4542 -8.6380 -0.1210 19.3843 -0.1920 5.3744 40.1428 -20.5934 19.4386 29.8046 -10.8081 6.7641 5.4446 -21.0010 4.5092 36.8726 -6.0602 7.1223 37.6129 -15.1557 8.6470 22.1659 -8.4174 9.3293 16.0939 46.7949 -23.9080 -3.7329 -28.5753 -2.5054 18.3193 29.8224 -7.6334
0.0000 0.0000 0.0000 72.0289 85.9269 16.0485 0.7739 2.4614 2.8671 -3.2010 6.8305 -7.6983 4.0881 -10.3056 5.6478 0.0000 0.0000 0.0000 -1.3243 -3.4441 -0.9766 -0.1136 17.1469 0.7524 0.6884 -10.4210 -7.4149 0.0000 0.0000 0.0000 1.9549 13.0556 0.3336 -2.6202 -5.9646 3.5412 -1.9741 -2.0587 1.1711 9.4972 -9.8193 -7.8740 -2.2598 12.0258 -9.5465 -20.2804 1.2517 5.6454 -57.7800 10.2882 2.5780 17.6576 14.5382 -37.0324 3.8219 -21.4039 -4.9439 -24.0738 5.7061 3.7140 -43.3124 7.0195 -1.1858 -11.0629 -4.9918 -5.7123 -30.3189 -7.2093 1.0370 -40.4542 -8.6380 0.1210 -19.3843 -0.1920 -5.3744 -40.1428 -20.5934 -19.4386 -29.8046 -10.8081 -6.7641 -5.4446 -21.0010 -4.5092 -36.8726 -6.0602 -7.1223 -37.6129 -15.1557 -8.6470 -22.1659 -8.4174 -9.3293 -16.0939 46.7949 23.9080 3.7329 -28.5753 2.5054 -18.3193 29.8224 7.6334 8.2341 -7.6173 20.7048 38.1456 4.6715 56.4086 -11.2698 -28.5697 45.0906 -17.1794 -30.1620 1.2451 24.0738 5.7061 -3.7140 43.3124 7.0195 1.1858 11.0629 -4.9918 5.7123 30.3189 -7.2093 -1.0370 40.4542 -8.6380 -0.1210 19.3843 -0.1920 5.3744 40.1428 -20.5934 19.4386 29.8046 -10.8081 6.7641 5.4446 -21.0010 4.5092 36.8726 -6.0602 7.1223 37.6129 -15.1557 8.6470 22.1659 -8.4174 9.3293 16.0939 46.7949 -23.9080 -3.7329 -28.5753 -2.5054 18.3193 29.8224 -7.6334
0.0000 0.0000 0.0000 72.6586 85.8894 16.4653 0.7572 2.4194 2.9008 -3.1617 6.7585 -8.3411 4.0771 -10.3516 5.1891 0.0000 0.0000 0.0000 -1.3529 -3.1540 -1.4767 -0.1091 16.8619 0.3600 0.4855 -10.3155 -7.4947 0.0000 0.0000 0.0000 2.2412 13.2760 0.4960 -3.0629 -5.7086 3.7123 -2.0808 -2.3978 1.3285 9.6340 -9.9885 -8.7624 -1.8207 11.5763 -9.8215 -20.2380 1.8723 4.5464 -57.6000 10.2962 2.1449 18.0135 13.5735 -37.3856 3.8570 -21.0889 -4.8303 -24.0738 5.7061 3.7140 -43.3124 7.0195 -1.1858 -11.0629 -4.9918 -5.7123 -30.3189 -7.2093 1.0370 -40.4542 -8.6380 0.1210 -19.3843 -0.1920 -5.3744 -40.1428 -20.5934 -19.4386 -29.8046 -10.8081 -6.7641 -5.4446 -21.0010 -4.5092 -36.8726 -6.0602 -7.1223 -37.6129 -15.1557 -8.6470 -22.1659 -8.4174 -9.3293 -16.0939 46.7949 23.9080 3.7329 -28.5753 2.5054 -18.3193 29.8224 7.6334 7.3910 -7.9443 22.9848 38.6231 5.4043 58.4793 -10.7138 -26.5864 43.7658 -14.6578 -30.7761 3.0130 24.0738 5.7061 -3.7140 43.3124 7.0195 1.1858 11.0629 -4.9918 5.7123 30.3189 -7.2093 -1.0370 40.4542 -8.6380 -0.1210 19.3843 -0.1920 5.3744 40.1428 -20.5934 19.4386 29.8046 -10.8081 6.7641 5.4446 -21.0010 4.5092 36.8726 -6.0602 7.1223 37.6129 -15.1557 8.6470 22.1659 -8.4174 9.3293 16.0939 46.7949 -23.9080 -3.7329 -28.5753 -2.5054 18.3193 29.8224 -7.6334
0.0000 0.0000 0.0000 73.0457 86.0556 16.9870 0.7657 2.0821 2.7954 -3.2064 6.9120 -8.4939 3.8810 -10.3017 4.7244 0.0000 0.0000 0.0000 -1.3843 -3.1470 -1.7010 -0.0993 16.7081 -0.0512 0.4234 -10.2656 -7.7494 0.0000 0.0000 0.0000 2.4892 13.7228 0.4970 -3.5722 -6.2375 3.9727 -2.1806 -2.6529 1.7290 9.7236 -10.0014 -9.9564 -1.4033 11.5924 -10.2102 -19.8607 1.8211 3.9177 -57.6391 10.4037 2.1092 18.1489 13.3307 -37.0779 3.2315 -21.0762 -5.0874 -24.0738 5.7061 3.7140 -43.3124 7.0195 -1.1858 -11.0629 -4.9918 -5.7123 -30.3189 -7.2093 1.0370 -40.4542 -8.6380 0.1210 -19.3843 -0.1920 -5.3744 -40.1428 -20.5934 -19.4386 -29.8046 -10.8081 -6.7641 -5.4446 -21.0010 -4.5092 -36.8726 -6.0602 -7.1223 -37.6129 -15.1557 -8.6470 -22.1659 -8.4174 -9.3293 -16.0939 46.7949 23.9080 3.7329 -28.5753 2.5054 -18.3193 29.8224 7.6334 6.4290 -7.9471 25.1934 38.7660 5.8325 60.2830 -9.9459 -25.5168 42.4009 -13.4207 -30.3466 3.2072 24.0738 5.7061 -3.7140 43.3124 7.0195 1.1858 11.0629 -4.9918 5.7123 30.3189 -7.2093 -1.0370 40.4542 -8.6380 -0.1210 19.3843 -0.1920 5.3744 40.1428 -20.5934 19.4386 29.8046 -10.8081 6.7641 5.4446 -21.0010 4.5092 36.8726 -6.0602 7.1223 37.6129 -15.1557 8.6470 22.1659 -8.4174 9.3293 16.0939 46.7949 -23.9080 -3.7329 -28.5753 -2.5054 18.3193 29.8224 -7.6334
0.0000 0.0000 0.0000 73.8253 86.1245 17.0186 0.8122 1.9263 2.6284 -3.3511 6.9310 -8.9290 3.7616 -10.2958 4.6257 0.0000 0.0000 0.0000 -1.4004 -2.9814 -1.9375 -0.1090 16.5084 -0.4329 0.1824 -10.2295 -7.8273 0.0000 0.0000 0.0000 2.6122 13.8372 0.6436 -4.0497 -6.3367 4.2963 -2.2202 -2.9000 1.9096 9.9249 -9.4804 -10.9653 -0.8264 11.4349 -10.3270 -19.7900 2.2368 3.0952 -57.8411 10.3273 1.9807 18.1486 11.5463 -36.5533 5.1107 -20.0400 -5.1825 -24.0738 5.7061 3.7140 -43.3124 7.0195 -1.1858 -11.0629 -4.9918 -5.7123 -30.3189 -7.2093 1.0370 -40.4542 -8.6380 0.1210 -19.3843 -0.1920 -5.3744 -40.1428 -20.5934 -19.4386 -29.8046 -10.8081 -6.7641 -5.4446 -21.0010 -4.5092 -36.8726 -6.0602 -7.1223 -37.6129 -15.1557 -8.6470 -22.1659 -8.4174 -9.3293 -16.0939 46.7949 23.9080 3.7329 -28.5753 2.5054 -18.3193 29.8224 7.6334 5.2514 -8.2014 26.9820 38.9549 6.2613 62.0278 -10.2756 -23.6270 39.8829 -12.3401 -29.0222 3.2573 24.0738 5.7061 -3.7140 43.3124 7.0195 1.1858 11.0629 -4.9918 5.7123 30.3189 -7.2093 -1.0370 40.4542 -8.6380 -0.1210 19.3843 -0.1920 5.3744 40.1428 -20.5934 19.4386 29.8046 -10.8081 6.7641 5.4446 -21.0010 4.5092 36.8726 -6.0602 7.1223 37.6129 -15.1557 8.6470 22.1659 -8.4174 9.3293 16.0939 46.7949 -23.9080 -3.7329 -28.5753 -2.5054 18.3193 29.8224 -7.6334
0.0000 0.0000 0.0000 74.1150 86.2664 17.7234 0.8078 1.8223 2.3980 -3.3382 6.6650 -9.6645 3.6964 -10.0781 4.6382 0.0000 0.0000 0.0000 -1.3687 -2.8108 -2.2938 -0.1425 16.1899 -0.7005 0.0145 -10.2335 -8.1792 0.0000 0.0000 0.0000 2.9166 14.1260 0.5233 -4.6772 -6.7283 4.5722 -2.2705 -3.1317 2.2052 9.9566 -9.2886 -12.3520 -0.1820 11.2840 -10.1617 -19.4275 1.8307 2.7721 -57.8546 10.3096 2.3455 17.9182 11.0085 -36.6781 4.8181 -19.7840 -4.9072 -24.0738 5.7061 3.7140 -43.3124 7.0195 -1.1858 -11.0629 -4.9918 -5.7123 -30.3189 -7.2093 1.0370 -40.4542 -8.6380 0.1210 -19.3843 -0.1920 -5.3744 -40.1428 -20.5934 -19.4386 -29.8046 -10.8081 -6.7641 -5.4446 -21.0010 -4.5092 -36.8726 -6.0602 -7.1223 -37.6129 -15.1557 -8.6470 -22.1659 -8.4174 -9.3293 -16.0939 46.7949 23.9080 3.7329 -28.5753 2.5054 -18.3193 29.8224 7.6334 3.8778 -8.9438 28.6037 38.6735 6.4721 62.7080 -9.5078 -21.9554 38.3822 -11.3323 -27.5492 4.1017 24.0738 5.7061 -3.7140 43.3124 7.0195 1.1858 11.0629 -4.9918 5.7123 30.3189 -7.2093 -1.0370 40.4542 -8.6380 -0.1210 19.3843 -0.1920 5.3744 40.1428 -20.5934 19.4386 29.8046 -10.8081 6.7641 5.4446 -21.0010 4.5092 36.8726 -6.0602 7.1223 37.6129 -15.1557 8.6470 22.1659 -8.4174 9.3293 16.0939 46.7949 -23.9080 -3.7329 -28.5753 -2.5054 18.3193 29.8224 -7.6334
0.0000 0.0000 0.0000 74.1017 86.5060 18.7253 0.7646 1.4331 2.3037 -3.2661 6.6918 -10.3874 3.6052 -9.9537 4.4348 0.0000 0.0000 0.0000 -1.3919 -2.8025 -2.4210 -0.0319 15.9952 -1.1484 -0.1299 -10.1502 -8.6162 0.0000 0.0000 0.0000 3.1151 14.7942 0.4697 -5.0327 -7.6602 4.7743 -2.4714 -3.0777 1.9371 10.1365 -9.7900 -12.8136 0.0049 11.8314 -10.2848 -19.0592 1.8115 3.5579 -58.0149 10.4096 2.2084 18.2317 11.0412 -37.2823 4.2965 -20.2275 -4.4236 -24.0738 5.7061 3.7140 -43.3124 7.0195 -1.1858 -11.0629 -4.9918 -5.7123 -30.3189 -7.2093 1.0370 -40.4542 -8.6380 0.1210 -19.3843 -0.1920 -5.3744 -40.1428 -20.5934 -19.4386 -29.8046 -10.8081 -6.7641 -5.4446 -21.0010 -4.5092 -36.8726 -6.0602 -7.1223 -37.6129 -15.1557 -8.6470 -22.1659 -8.4174 -9.3293 -16.0939 46.7949 23.9080 3.7329 -28.5753 2.5054 -18.3193 29.8224 7.6334 2.7146 -10.0324 28.6418 38.7037 7.5597 64.4382 -8.4189 -19.7865 37.2830 -8.1047 -27.8870 5.1116 24.0738 5.7061 -3.7140 43.3124 7.0195 1.1858 11.0629 -4.9918 5.7123 30.3189 -7.2093 -1.0370 40.4542 -8.6380 -0.1210 19.3843 -0.1920 5.3744 40.1428 -20.5934 19.4386 29.8046 -10.8081 6.7641 5.4446 -21.0010 4.5092 36.8726 -6.0602 7.1223 37.6129 -15.1557 8.6470 22.1659 -8.4174 9.3293 16.0939 46.7949 -23.9080 -3.7329 -28.5753 -2.5054 18.3193 29.8224 -7.6334
